<svg width="528" height="85" viewBox="0 0 528 85" fill="none" xmlns="http://www.w3.org/2000/svg">
<path d="M37.0854 14.1831H40.573V0H34.0628C18.6008 0 10.2305 9.30041 10.2305 25.5761V28.9475H0V40.6893H10.2305V83.1224H25.4599V40.6893H37.3179V28.9475H25.4599V25.4599C25.5761 18.9496 28.3663 14.1831 37.0854 14.1831Z" fill="white"/>
<path d="M72.4569 27.5525C65.7141 27.5525 59.5526 31.3889 56.53 40.4568V28.9475H41.4168V83.1224H56.6462V64.5216C56.6462 49.0597 61.994 41.8519 69.7831 41.8519C71.6431 41.8519 74.317 42.0844 77.5722 43.8282L81.0598 29.2963C78.6184 28.0175 75.3633 27.5525 72.4569 27.5525Z" fill="white"/>
<path d="M122.957 28.9475V35.4578C119.121 29.9938 111.797 27.6687 105.519 27.6687C91.5682 27.6687 78.8964 38.4805 78.8964 55.9187C78.8964 73.357 91.5682 84.1687 105.519 84.1687C111.564 84.1687 119.121 81.7274 122.957 76.3796V83.1224H138.186V28.9475H122.957ZM108.425 69.9856C100.752 69.9856 94.3583 63.8241 94.3583 55.9187C94.3583 47.8971 100.752 41.9681 108.425 41.9681C115.517 41.9681 122.492 47.5484 122.492 55.9187C122.492 64.1728 115.866 69.9856 108.425 69.9856Z" fill="white"/>
<path d="M179.255 27.5525C173.907 27.5525 165.304 30.6914 162.979 38.0154V28.9475H147.749V83.1224H162.979V55.3374C162.979 45.4558 169.722 42.5494 175.186 42.5494C180.417 42.5494 185.532 46.3858 185.532 54.9887V83.1224H200.762V53.3611C200.878 37.0854 193.438 27.5525 179.255 27.5525Z" fill="white"/>
<path d="M262.846 83.1224L236.921 52.7798L258.079 28.9475H238.548L224.83 45.4558V0H209.601V83.1224H224.83V59.6389L243.896 83.1224H262.846Z" fill="white"/>
<path d="M271.062 19.2984C276.409 19.2984 280.711 15.2294 280.711 10.1142C280.711 4.99897 276.409 1.0463 271.062 1.0463C265.83 1.0463 261.412 4.99897 261.412 10.1142C261.412 15.2294 265.83 19.2984 271.062 19.2984ZM263.505 83.1224H278.734V28.9475H263.505V83.1224Z" fill="white"/>
<path d="M341.942 55.1049C341.942 38.4805 329.27 27.5525 313.808 27.5525C298.23 27.5525 284.977 38.4805 284.977 56.035C284.977 72.7757 297.184 84.1687 313.808 84.1687C323.341 84.1687 332.874 80.4486 337.989 73.5895L329.037 64.6379C325.782 68.4743 320.318 70.6831 314.854 70.6831C307.53 70.6831 302.415 67.1955 300.787 60.9177H341.709C341.826 58.4763 341.942 56.6163 341.942 55.1049ZM300.787 51.036C302.415 43.7119 307.879 40.8056 314.041 40.8056C320.9 40.8056 326.247 44.642 326.712 51.036H300.787Z" fill="white"/>
<path d="M376.691 84.1687C392.153 84.1687 405.871 73.0083 405.871 55.9187C405.871 38.713 392.153 27.5525 376.691 27.5525C361.229 27.5525 347.511 38.713 347.511 55.9187C347.511 73.0083 361.229 84.1687 376.691 84.1687ZM376.691 69.9856C369.135 69.9856 362.973 64.2891 362.973 55.9187C362.973 47.4321 369.135 41.7356 376.691 41.7356C384.248 41.7356 390.41 47.4321 390.41 55.9187C390.41 64.2891 384.248 69.9856 376.691 69.9856Z" fill="#4284FB"/>
<path d="M443.558 27.5525C438.21 27.5525 429.607 30.6914 427.282 38.0155V28.9476H412.053V83.1225H427.282V55.3375C427.282 45.4558 434.025 42.5494 439.489 42.5494C444.721 42.5494 449.836 46.3858 449.836 54.9887V83.1225H465.065V53.3611C465.182 37.0854 457.741 27.5525 443.558 27.5525Z" fill="#4284FB"/>
<path d="M527.614 55.105C527.614 38.4805 514.942 27.5525 499.48 27.5525C483.902 27.5525 470.649 38.4805 470.649 56.035C470.649 72.7757 482.856 84.1687 499.48 84.1687C509.013 84.1687 518.546 80.4486 523.662 73.5895L514.71 64.6379C511.455 68.4743 505.991 70.6832 500.527 70.6832C493.203 70.6832 488.087 67.1955 486.46 60.9177H527.382C527.498 58.4764 527.614 56.6163 527.614 55.105ZM486.46 51.036C488.087 43.712 493.551 40.8056 499.713 40.8056C506.572 40.8056 511.92 44.642 512.385 51.036H486.46Z" fill="#4284FB"/>
</svg>
